<svg width="24" height="24" viewBox="0 0 24 24" fill="none" xmlns="http://www.w3.org/2000/svg">
<path fill-rule="evenodd" clip-rule="evenodd" d="M11.8 17.4C12.7941 17.4 13.6 18.2059 13.6 19.2C13.6 20.1941 12.7941 21 11.8 21C10.8059 21 10 20.1941 10 19.2C10 18.2059 10.8059 17.4 11.8 17.4ZM13.6 12C13.6 11.0059 12.7941 10.2 11.8 10.2C10.8059 10.2 10 11.0059 10 12C10 12.9941 10.8059 13.8 11.8 13.8C12.7941 13.8 13.6 12.9941 13.6 12ZM13.6 4.8C13.6 3.80589 12.7941 3 11.8 3C10.8059 3 10 3.80589 10 4.8C10 5.79411 10.8059 6.6 11.8 6.6C12.7941 6.6 13.6 5.79411 13.6 4.8Z" fill="black"/>
</svg>
